<?xml version="1.0" encoding="UTF-8" standalone="no"?>
<svg width="512" height="512" viewBox="0 0 512 512" xmlns="http://www.w3.org/2000/svg">
  <!-- Background -->
  <rect width="512" height="512" fill="#4945FF" />
  
  <!-- Stylized "S" for Strapi -->
  <path d="M153.6 128C128 128 128 153.6 153.6 153.6H204.8C230.4 153.6 230.4 204.8 204.8 204.8H153.6C128 204.8 128 230.4 153.6 230.4H204.8C230.4 230.4 230.4 281.6 204.8 281.6H153.6C128 281.6 128 307.2 153.6 307.2H204.8C256 307.2 256 230.4 204.8 230.4C256 230.4 256 153.6 204.8 153.6C256 153.6 256 128 204.8 128H153.6Z" fill="white" />
  
  <!-- MCP Connection Lines -->
  <line x1="256" y1="153.6" x2="409.6" y2="153.6" stroke="white" stroke-width="15" />
  <line x1="256" y1="256" x2="409.6" y2="256" stroke="white" stroke-width="15" />
  <line x1="256" y1="358.4" x2="409.6" y2="358.4" stroke="white" stroke-width="15" />
  
  <!-- Connection Dots -->
  <circle cx="409.6" cy="153.6" r="20" fill="white" />
  <circle cx="409.6" cy="256" r="20" fill="white" />
  <circle cx="409.6" cy="358.4" r="20" fill="white" />
  
  <!-- MCP Text -->
  <text x="358.4" y="460.8" font-family="Arial" font-size="51.2" font-weight="bold" fill="white" text-anchor="middle">MCP</text>
</svg>
